<svg xmlns="http://www.w3.org/2000/svg" viewBox="0 0 87.3 78" width="24" height="24">
  <path d="M6.6 66.85L3.4 61.45.2 56.05l17-29.4h33.9l-3.2 5.6-3.2 5.5H31.8L19.9 56.15l-6.7 11.6z" fill="#0066DA"/>
  <path d="M43.65 25.15L27.8 0l34.2 0 15.8 27.4-3.15 5.55-3.2 5.5-13.7-7.8z" fill="#00AC47"/>
  <path d="M73.55 76.8l13.4-23.15-17-29.4-6.45 3.7-6.3 3.65 8.45 14.7-8.5 14.75 3.2 5.5z" fill="#EA4335"/>
  <path d="M43.65 25.15L57 2.55 73.55 76.8l-6.7-11.6-11.9-20.6H31.8l-3.2-5.5-3.2-5.55z" fill="#00832D"/>
  <path d="M6.6 66.85l6.7-11.6 11.9-20.6h13.15l3.2 5.5 3.2 5.55h-16.9l-8.5 14.75z" fill="#2684FC"/>
  <path d="M73.55 76.8H43.65L27.8 78l15.85-52.85 6.4 3.65 6.3 3.65-8.45 14.7h16.9l3.2 5.55z" fill="#FFBA00"/>
</svg>
