<svg xmlns="http://www.w3.org/2000/svg" viewBox="0 0 100 100" fill="none">
  <path d="M6.017 4.313l55.333 -4.087c6.797 -0.583 8.543 -0.19 12.817 2.917l17.663 12.443c2.913 2.14 3.883 2.723 3.883 5.053v68.243c0 4.277 -1.553 6.807 -6.99 7.193L24.467 99.967c-4.08 0.193 -6.023 -0.39 -8.16 -3.113L3.3 79.94c-2.333 -3.113 -3.3 -5.443 -3.3 -8.167V11.113c0 -3.497 1.553 -6.413 6.017 -6.8z" fill="#fff"/>
  <path fill-rule="evenodd" clip-rule="evenodd" d="M61.35 0.227l-55.333 4.087C1.553 4.7 0 7.617 0 11.113v60.66c0 2.723 0.967 5.053 3.3 8.167l12.993 16.913c2.137 2.723 4.08 3.307 8.16 3.113L88.71 95.88c5.437 -0.387 6.99 -2.917 6.99 -7.193V20.64c0 -2.21 -0.873 -2.847 -3.443 -4.733L74.167 3.143C69.893 0.037 68.147 -0.357 61.35 0.227zM25.667 19.37c-5.583 0.477 -6.86 0.587 -10.043 -1.89L8.927 12.063c-0.78 -0.78 -0.39 -1.75 1.36 -1.943l51.443 -3.693c4.277 -0.39 6.413 1.163 8.16 2.527l8.543 6.22c0.39 0.193 1.36 1.36 0.193 1.36l-53.15 3.063 0.19 -0.227zM19.3 88.363V35.177c0 -2.53 0.78 -3.697 3.113 -3.893l56.83 -3.307c2.14 -0.193 3.113 1.167 3.113 3.697v52.793c0 2.527 -0.39 4.667 -3.883 4.86L25.127 91.67c-3.5 0.193 -5.827 -0.97 -5.827 -3.307zm54.1 -48.99c0.39 1.75 0 3.5 -1.75 3.7l-2.723 0.583v39.183c-2.333 1.167 -4.473 1.75 -6.22 1.75 -2.917 0 -3.693 -0.777 -5.833 -3.307L39.577 52.98v25.723l5.637 1.36s0 3.497 -4.857 3.497L28.587 84.86c-0.39 -0.78 0 -2.723 1.357 -3.11l3.497 -0.97V43.503l-4.857 -0.39c-0.39 -1.75 0.583 -4.277 3.307 -4.47l17.86 -1.166 18.443 28.233V41.263l-4.667 -0.583c-0.39 -2.143 1.163 -3.693 3.113 -3.887l13.277 -0.777z" fill="#000"/>
</svg>
